Fly_normalized_Motion_pl09
version=1
nRows=20
nColumns=43
inDegrees=yes
endheader
time		pelvis_tilt		pelvis_list		pelvis_rotation		pelvis_tx		pelvis_ty		pelvis_tz		hip_flexion_r		hip_adduction_r		hip_rotation_r		knee_angle_r		ankle_angle_r		subtalar_angle_r		mtp_angle_r		hip_flexion_l		hip_adduction_l		hip_rotation_l		knee_angle_l		ankle_angle_l		subtalar_angle_l		mtp_angle_l		lumbar_extension		lumbar_bending		lumbar_rotation		neck_flexion		neck_lateral_bending		neck_rotation		arm_flex_r		arm_add_r		arm_rot_r		elbow_flex_r		pro_sup_r		wrist_flex_r		wrist_dev_r		hand_finger_flex_r		arm_flex_l		arm_add_l		arm_rot_l		elbow_flex_l		pro_sup_l		wrist_flex_l		wrist_dev_l		hand_finger_flex_l		
2.374141		6.107341		-12.000095		91.461012		-0.024298		1.663837		1.134040		63.074126		-5.415739		-10.976090		-86.266074		-12.853502		-3.599226		28.517282		43.685539		-11.952053		1.688341		-97.045864		-8.445142		-11.043089		14.093415		-27.397188		3.897177		3.478214		-0.646357		7.060800		-0.785415		64.271276		-28.098273		22.387788		62.760846		105.586300		5.289847		-5.754607		-31.109840		62.356788		-25.166078		17.539704		68.090820		107.847354		-9.087277		1.217456		-17.083086		
2.378207		6.087822		-11.916713		91.651777		-0.024538		1.660714		1.126317		62.531886		-5.515881		-11.277670		-84.723262		-13.095021		-3.710790		28.488310		43.860685		-11.920445		1.459203		-95.670764		-8.318628		-10.114573		14.073477		-27.347204		4.021098		3.309426		-0.794450		7.039052		-0.850412		62.524194		-28.723387		21.597051		63.102373		106.091334		5.616734		-5.382869		-31.001426		60.723806		-26.266524		17.543932		68.771083		107.893195		-9.134077		1.678411		-16.969012		
2.382273		6.081290		-11.842628		91.842588		-0.024744		1.657461		1.118641		61.963677		-5.586427		-11.588027		-83.135202		-13.323661		-3.800661		28.437473		44.039665		-11.892482		1.254920		-94.274813		-8.223402		-9.065041		14.122897		-27.305556		4.143345		3.136971		-0.889225		7.032507		-0.900611		60.800313		-29.335019		20.793247		63.423090		106.678010		5.982224		-4.958199		-30.858364		59.060891		-27.379568		17.509611		69.490541		107.978431		-9.177694		2.160144		-16.901501		
2.386338		6.138092		-11.761910		92.046640		-0.024830		1.654070		1.110991		61.338237		-5.594133		-11.957436		-81.488893		-13.541834		-3.873970		28.354375		44.206069		-11.923023		1.133872		-92.860447		-8.061490		-7.749247		14.327628		-27.303912		4.316376		2.942777		-0.832862		7.010929		-0.886944		59.093132		-29.855367		19.857812		63.784590		107.711623		6.567216		-4.359182		-30.636301		57.316031		-28.542147		17.317132		70.363456		108.192326		-9.145497		2.792035		-16.875295		
2.390404		6.112572		-11.670421		92.201075		-0.024927		1.650605		1.103375		60.684294		-5.587954		-12.187197		-79.801980		-13.749599		-3.780462		28.303697		44.322947		-11.877959		0.904030		-91.394822		-8.237037		-6.909446		14.452806		-27.316074		4.389166		2.756050		-0.832329		7.019947		-0.931727		57.388335		-30.424514		19.147851		63.992891		108.037415		6.609710		-4.136321		-30.670533		55.571325		-29.641962		17.089968		71.040361		108.290486		-9.185115		2.823410		-16.924044		
2.394470		6.100497		-11.579279		92.357684		-0.025012		1.646894		1.095715		60.011910		-5.583895		-12.449335		-78.117959		-13.974321		-3.653007		28.274313		44.415087		-11.851043		0.665511		-89.917627		-8.374136		-6.146105		14.589798		-27.312451		4.478104		2.577321		-0.903890		7.031117		-0.947208		55.690219		-31.056891		18.547144		64.230437		108.379262		6.686750		-3.860060		-30.718045		53.834907		-30.791599		16.911154		71.695836		108.362911		-9.124027		2.830612		-16.941471		
2.398535		6.087461		-11.491444		92.519660		-0.025084		1.642960		1.088003		59.328798		-5.580031		-12.707759		-76.436928		-14.222318		-3.499839		28.263473		44.487787		-11.817392		0.410127		-88.424558		-8.556831		-5.596284		14.703371		-27.278610		4.566167		2.406047		-1.092321		7.030977		-0.976488		53.959899		-31.739523		18.006363		64.459225		108.672163		6.744427		-3.654711		-30.802565		52.118214		-31.965959		16.799878		72.298531		108.419286		-9.013178		2.779451		-16.941179		
2.402601		6.080092		-11.405758		92.688525		-0.025145		1.638870		1.080263		58.628098		-5.567008		-12.955399		-74.744322		-14.489505		-3.328830		28.270130		44.550943		-11.784520		0.153442		-86.917406		-8.772589		-5.190672		14.804239		-27.236566		4.660333		2.235260		-1.305736		7.024937		-1.007363		52.173166		-32.409086		17.409905		64.699345		108.946635		6.773201		-3.479496		-30.929493		50.380291		-33.173815		16.688015		72.907606		108.490219		-8.878257		2.706532		-16.940093		
2.406667		6.087275		-11.310836		92.878727		-0.025068		1.634641		1.072483		57.887676		-5.520892		-13.191730		-73.015227		-14.784303		-3.137369		28.313063		44.594669		-11.770770		-0.085501		-85.390910		-9.052847		-4.987179		14.899035		-27.214009		4.754120		2.050188		-1.417961		7.017622		-1.022715		50.276322		-32.973430		16.585605		64.985968		109.265347		6.778716		-3.289957		-31.131835		48.550709		-34.412459		16.455253		73.626217		108.680808		-8.710185		2.665398		-16.969077		
2.410732		6.100597		-11.185058		93.069748		-0.024981		1.630297		1.064634		57.099987		-5.452213		-13.393983		-71.281215		-15.119393		-2.932678		28.415251		44.576553		-11.763872		-0.347028		-83.833357		-9.440636		-5.097312		14.975000		-27.246504		4.849945		1.849567		-1.361801		7.029027		-1.016790		48.289400		-33.425949		15.509742		65.339884		109.699868		6.839335		-3.076002		-31.402264		46.562608		-35.670882		15.993722		74.530234		109.221585		-8.451202		2.736841		-17.084110		
2.414798		6.061867		-11.050372		93.237577		-0.025066		1.625589		1.056773		56.348182		-5.459991		-13.568897		-69.640398		-15.470966		-2.744083		28.503290		44.531239		-11.733633		-0.691395		-82.316343		-9.779048		-5.259379		15.011376		-27.232689		4.905359		1.689315		-1.685044		7.046459		-1.065873		46.394496		-34.168164		14.875603		65.676071		110.054907		7.009705		-2.997530		-31.588138		44.651211		-37.008465		15.776608		75.354868		109.794297		-8.129516		2.761011		-17.189245		
2.418864		5.999171		-10.858009		93.373543		-0.025058		1.621003		1.048903		55.490073		-5.420436		-13.673578		-67.920565		-15.858842		-2.505848		28.771205		44.326558		-11.677061		-1.081519		-80.656268		-10.308008		-5.847567		15.030276		-27.402356		4.909965		1.449850		-1.360682		7.112977		-0.979888		44.397932		-34.544107		13.658484		66.115501		110.894331		7.292389		-2.800825		-31.914506		42.357334		-38.264684		14.730244		76.579049		111.100285		-7.439074		3.011701		-17.597564		
2.422929		5.947467		-10.700303		93.514915		-0.025050		1.615917		1.041002		54.715339		-5.379086		-13.750987		-66.296921		-16.304942		-2.254413		28.925376		44.161746		-11.608081		-1.403476		-79.069236		-10.647387		-6.129670		15.018122		-27.413499		4.927446		1.272982		-1.684298		7.140329		-1.016902		42.439594		-35.142520		12.881048		66.411824		111.328962		7.387748		-2.811873		-32.149174		40.280562		-39.595847		14.215492		77.484314		111.780031		-6.993690		3.006744		-17.886674		
2.426995		5.891202		-10.542718		93.626886		-0.024864		1.610836		1.033116		53.894770		-5.290444		-13.806722		-64.577813		-16.788580		-1.968243		29.005012		43.933348		-11.544248		-1.733456		-77.402418		-11.051310		-6.564176		14.918658		-27.504474		4.895546		1.117082		-1.554544		7.221734		-0.998531		40.327302		-35.553841		11.752533		66.770112		111.662778		7.196903		-2.825952		-32.340804		38.076535		-40.795073		13.400656		78.442379		112.096314		-6.882901		2.966856		-18.151871		
2.431061		5.823959		-10.381112		93.739485		-0.024806		1.605390		1.025185		53.110297		-5.232541		-13.853585		-62.966152		-17.253067		-1.730196		29.002885		43.681519		-11.457350		-2.064943		-75.758836		-11.386155		-6.844123		14.795959		-27.527947		4.885839		0.996341		-1.790684		7.246117		-1.033651		38.258338		-36.147319		10.891059		67.104193		111.920263		7.088449		-2.872857		-32.405478		35.994770		-42.005947		12.862370		79.222250		112.210612		-6.836053		2.909905		-18.239268		
2.435126		5.724759		-10.168473		93.817333		-0.024627		1.599989		1.017197		52.238706		-5.146037		-13.843843		-61.302090		-17.731474		-1.522558		28.963016		43.316123		-11.356704		-2.422094		-74.052796		-11.757563		-7.238392		14.563168		-27.649673		4.824974		0.869487		-1.764717		7.236032		-1.038849		36.098486		-36.532885		9.678503		67.465381		112.383434		7.007044		-2.916590		-32.389381		33.735084		-43.073179		11.932126		80.060977		112.246988		-6.839701		2.891440		-18.285924		
2.439192		5.621418		-9.969445		93.900322		-0.024547		1.594262		1.009156		51.405231		-5.074085		-13.840724		-59.709521		-18.159699		-1.415212		28.861763		42.956812		-11.235093		-2.768309		-72.380832		-12.071679		-7.461800		14.272321		-27.691743		4.781011		0.766363		-2.025657		7.185863		-1.084895		33.913774		-37.004417		8.574970		67.787629		112.760830		6.975051		-3.014517		-32.327408		31.508741		-44.103721		11.146039		80.758530		112.205932		-6.877794		2.774644		-18.270843		
2.443258		5.500913		-9.773384		93.973198		-0.024552		1.588359		1.001077		50.564844		-5.011849		-13.816029		-58.121882		-18.537651		-1.404334		28.712116		42.574081		-11.082520		-3.121884		-70.702670		-12.384170		-7.583382		13.904070		-27.719374		4.736876		0.693766		-2.285524		7.127676		-1.154527		31.662372		-37.449221		7.372080		68.131780		113.093408		6.947985		-3.103930		-32.244903		29.207965		-45.065991		10.280739		81.430019		112.131039		-6.904341		2.566936		-18.242060		
2.447323		5.370399		-9.578590		94.042271		-0.024503		1.582219		0.992969		49.738666		-4.951421		-13.791124		-56.581766		-18.863814		-1.457317		28.529095		42.185659		-10.922205		-3.455005		-69.041972		-12.702542		-7.528456		13.484125		-27.724996		4.666131		0.629506		-2.624605		7.069866		-1.240186		29.354481		-37.895821		6.155725		68.489987		113.359303		6.914560		-3.168392		-32.158384		26.863889		-46.016756		9.391499		82.099735		112.055928		-6.873973		2.286143		-18.228688		
2.451389		5.236084		-9.398704		94.093425		-0.024465		1.575862		0.984833		48.918065		-4.893324		-13.745185		-55.047075		-19.143833		-1.554140		28.306460		41.796212		-10.756367		-3.772846		-67.392815		-13.023009		-7.237953		13.020341		-27.720214		4.585253		0.597120		-2.918316		7.035119		-1.328993		26.998260		-38.309071		4.896481		68.873376		113.549441		6.859084		-3.208648		-32.062864		24.424021		-46.963716		8.412428		82.806152		111.970987		-6.776676		1.957308		-18.246148		
